<?xml version="1.0" standalone="no"?>
<!DOCTYPE svg PUBLIC "-//W3C//DTD SVG 20010904//EN"
 "http://www.w3.org/TR/2001/REC-SVG-20010904/DTD/svg10.dtd">
<svg version="1.0" xmlns="http://www.w3.org/2000/svg"
 width="512.000000pt" height="512.000000pt" viewBox="0 0 512.000000 512.000000"
 preserveAspectRatio="xMidYMid meet">
<metadata>
Created by potrace 1.14, written by Peter Selinger 2001-2017
</metadata>
<g transform="translate(0.000000,512.000000) scale(0.100000,-0.100000)"
fill="#000000" stroke="none">
<path d="M2032 4931 c-64 -22 -148 -79 -183 -124 -44 -55 -1132 -1948 -1151
-2002 -34 -97 -18 -236 38 -331 35 -59 115 -131 182 -162 l57 -27 283 -3 c260
-3 284 -5 279 -20 -2 -9 -138 -364 -300 -787 -163 -424 -301 -795 -308 -824
-17 -79 -5 -163 34 -246 42 -88 107 -154 195 -197 62 -31 73 -33 172 -33 158
0 178 12 425 255 689 677 2550 2513 2602 2566 74 75 92 123 74 193 -15 56 -44
96 -84 119 -29 15 -86 17 -604 22 l-572 5 186 245 c579 762 592 781 613 848
34 111 21 230 -36 328 -35 59 -115 131 -182 162 l-57 27 -805 2 c-759 2 -808
2 -858 -16z"/>
</g>
</svg>
