<?xml version="1.0" standalone="no"?>
<!DOCTYPE svg PUBLIC "-//W3C//DTD SVG 20010904//EN"
 "http://www.w3.org/TR/2001/REC-SVG-20010904/DTD/svg10.dtd">
<svg version="1.0" xmlns="http://www.w3.org/2000/svg"
 width="320.000000pt" height="320.000000pt" viewBox="0 0 320.000000 320.000000"
 preserveAspectRatio="xMidYMid meet">
<metadata>
Created by potrace 1.11, written by Peter Selinger 2001-2013
</metadata>
<g transform="translate(0.000000,320.000000) scale(0.100000,-0.100000)"
fill="#000000" stroke="none">
<path d="M306 3189 c-62 -15 -153 -68 -197 -116 -22 -24 -55 -74 -72 -111
l-32 -67 0 -1296 0 -1295 37 -76 c45 -91 103 -147 196 -191 l67 -32 853 -3
c750 -2 853 -1 858 12 6 15 -339 988 -359 1013 -15 20 -54 15 -70 -8 -8 -11
-32 -67 -53 -124 -21 -58 -41 -102 -44 -97 -4 4 -193 520 -419 1147 -227 627
-424 1156 -436 1176 -37 57 -93 79 -201 78 -49 -1 -106 -5 -128 -10z"/>
<path d="M1644 3175 c-16 -25 -15 -30 41 -188 173 -482 191 -584 140 -809 -43
-191 -68 -104 321 -1161 190 -517 352 -953 360 -969 24 -46 43 -50 223 -46
162 3 168 4 233 35 93 44 151 100 196 191 l37 76 0 1296 0 1296 -37 76 c-45
91 -103 147 -196 191 l-67 32 -617 3 -617 3 -17 -26z"/>
</g>
</svg>
